<svg xmlns="http://www.w3.org/2000/svg" xmlns:xlink="http://www.w3.org/1999/xlink" width="940" zoomAndPan="magnify" viewBox="0 0 705 591.000005" height="788" preserveAspectRatio="xMidYMid meet" version="1.0"><defs><g/></defs><g fill="#ebebeb" fill-opacity="1"><g transform="translate(22.97567, 335.085554)"><g><path d="M 80.984375 -68.171875 L 80.984375 -53.96875 L 33.015625 -34.25 L 80.984375 -14.71875 L 80.984375 -0.453125 L 14.828125 -27.75 L 14.828125 -40.828125 Z M 80.984375 -68.171875 "/></g></g></g><g fill="#ebebeb" fill-opacity="1"><g transform="translate(118.774903, 335.085554)"><g><path d="M 41.5 1.015625 L 41.5 -41.28125 L 71.328125 -41.28125 C 71.328125 -40.71875 71.363281 -39.910156 71.4375 -38.859375 C 71.507812 -36.910156 71.546875 -35.65625 71.546875 -35.09375 C 71.546875 -24.09375 68.972656 -15.492188 63.828125 -9.296875 C 58.679688 -3.097656 51.238281 0.335938 41.5 1.015625 Z M 39.3125 -83.0625 L 68.0625 -83.0625 L 68.0625 -51.046875 Z M 34.375 1.015625 C 23.8125 0.148438 15.804688 -3.828125 10.359375 -10.921875 C 4.910156 -18.015625 2.1875 -28.019531 2.1875 -40.9375 C 2.1875 -53.894531 4.910156 -63.921875 10.359375 -71.015625 C 15.804688 -78.109375 23.8125 -82.125 34.375 -83.0625 Z M 34.375 1.015625 "/></g></g></g><g fill="#ebebeb" fill-opacity="1"><g transform="translate(192.842433, 335.085554)"><g><path d="M 38.078125 -83.0625 L 64.421875 -83.0625 L 64.421875 -51.671875 Z M 38.078125 0 L 64.421875 -31.390625 L 64.421875 0 Z M 35.546875 0 C 24.617188 -0.863281 16.328125 -4.820312 10.671875 -11.875 C 5.015625 -18.9375 2.1875 -28.8125 2.1875 -41.5 C 2.1875 -54.226562 5.015625 -64.101562 10.671875 -71.125 C 16.328125 -78.144531 24.617188 -82.125 35.546875 -83.0625 Z M 35.546875 0 "/></g></g></g><g fill="#ebebeb" fill-opacity="1"><g transform="translate(260.452209, 335.085554)"><g><path d="M 34.375 1.015625 C 23.925781 0.222656 15.945312 -3.8125 10.4375 -11.09375 C 4.9375 -18.375 2.1875 -28.507812 2.1875 -41.5 C 2.1875 -54.53125 4.9375 -64.675781 10.4375 -71.9375 C 15.945312 -79.207031 23.925781 -83.253906 34.375 -84.078125 Z M 41.28125 1.015625 L 41.28125 -84.078125 C 51.726562 -83.253906 59.710938 -79.207031 65.234375 -71.9375 C 70.753906 -64.675781 73.515625 -54.53125 73.515625 -41.5 C 73.515625 -28.507812 70.753906 -18.375 65.234375 -11.09375 C 59.710938 -3.8125 51.726562 0.222656 41.28125 1.015625 Z M 41.28125 1.015625 "/></g></g></g><g fill="#ebebeb" fill-opacity="1"><g transform="translate(336.035913, 335.085554)"><g><path d="M 33.25 0 L 3.703125 0 L 3.703125 -83.0625 L 33.25 -83.0625 Z M 40.265625 0 L 40.265625 -83.0625 C 50.742188 -82.125 58.726562 -78.113281 64.21875 -71.03125 C 69.707031 -63.957031 72.453125 -54.113281 72.453125 -41.5 C 72.453125 -28.882812 69.707031 -19.03125 64.21875 -11.9375 C 58.726562 -4.84375 50.742188 -0.863281 40.265625 0 Z M 40.265625 0 "/></g></g></g><g fill="#ebebeb" fill-opacity="1"><g transform="translate(410.552694, 335.085554)"><g><path d="M 32.796875 0 L 3.703125 0 L 3.703125 -83.0625 L 32.796875 -83.0625 Z M 35.21875 -83.0625 L 63.96875 -83.0625 L 63.96875 -51.046875 Z M 53.015625 -26.109375 L 34.875 -43.25 L 53.015625 -60.375 Z M 35.21875 0 L 64.421875 -37.40625 L 64.421875 0 Z M 35.21875 0 "/></g></g></g><g fill="#ebebeb" fill-opacity="1"><g transform="translate(478.16247, 335.085554)"><g><path d="M 56.953125 -47.953125 L 29.765625 -83.0625 L 56.953125 -83.0625 Z M 3.203125 0 L 3.203125 -37.859375 L 32.453125 0 Z M 26.671875 -82.71875 C 25.890625 -81.863281 25.3125 -81.015625 24.9375 -80.171875 C 24.5625 -79.328125 24.375 -78.4375 24.375 -77.5 C 24.375 -76.414062 24.671875 -75.242188 25.265625 -73.984375 C 25.867188 -72.734375 26.878906 -71.191406 28.296875 -69.359375 L 53.46875 -37.015625 C 56.007812 -33.785156 57.753906 -30.851562 58.703125 -28.21875 C 59.660156 -25.582031 60.140625 -22.613281 60.140625 -19.3125 C 60.140625 -13.882812 58.304688 -9.304688 54.640625 -5.578125 C 50.972656 -1.859375 46.441406 0 41.046875 0 C 40.265625 0 39.421875 -0.0351562 38.515625 -0.109375 C 37.617188 -0.179688 36.628906 -0.296875 35.546875 -0.453125 C 36.335938 -1.203125 36.9375 -1.96875 37.34375 -2.75 C 37.757812 -3.539062 37.96875 -4.347656 37.96875 -5.171875 C 37.96875 -6.398438 37.691406 -7.628906 37.140625 -8.859375 C 36.597656 -10.097656 35.523438 -11.75 33.921875 -13.8125 L 8.875 -46 C 6.289062 -49.332031 4.507812 -52.304688 3.53125 -54.921875 C 2.5625 -57.546875 2.078125 -60.484375 2.078125 -63.734375 C 2.078125 -69.273438 3.945312 -73.898438 7.6875 -77.609375 C 11.4375 -81.316406 16.191406 -83.171875 21.953125 -83.171875 C 22.960938 -83.171875 24.441406 -83.019531 26.390625 -82.71875 Z M 26.671875 -82.71875 "/></g></g></g><g fill="#ebebeb" fill-opacity="1"><g transform="translate(539.370638, 335.085554)"><g><path d="M 36.21875 -84.078125 L 45.328125 -84.078125 L 10.671875 10.671875 L 1.625 10.671875 Z M 36.21875 -84.078125 "/></g></g></g><g fill="#ebebeb" fill-opacity="1"><g transform="translate(586.203341, 335.085554)"><g><path d="M 14.828125 -68.171875 L 80.984375 -40.828125 L 80.984375 -27.75 L 14.828125 -0.453125 L 14.828125 -14.71875 L 62.78125 -34.25 L 14.828125 -53.96875 Z M 14.828125 -68.171875 "/></g></g></g></svg>